<?xml version="1.0" standalone="no"?><!DOCTYPE svg PUBLIC "-//W3C//DTD SVG 1.1//EN" "http://www.w3.org/Graphics/SVG/1.1/DTD/svg11.dtd"><svg class="icon" width="64px" height="64.00px" viewBox="0 0 1024 1024" version="1.1" xmlns="http://www.w3.org/2000/svg"><path d="M806.5884529918974 512.2288065654307c-8.673617379884035e-19 0.005362653877279683-1.734723475976807e-18 0.010725307754559366-2.6020852139652106e-18 0.014300410339412485-3.552713678800501e-15 16.332856158901485-6.844533898701307 31.065853911081206-17.821886385492824 41.48906549722048l-474.79864898658843 449.1705261070687c-10.224793392679928 9.679590248489825-24.067590601231213 15.628560949685413-39.29752761270551 15.630348500977846-31.600331747516744-5.329070518200751e-15-57.21594176798937-25.61561002047263-57.21594176798936-57.21594176798938 1.7763568394002505e-15-16.36860718475002 6.873134719380133-31.13199330890098 17.891600885897454-41.56056754891753l430.983979257921-407.6421344814149-430.95716598853454-407.96210616275937c-11.020253717809743-10.466112817157516-17.87730047555802-25.227711390016054-17.877300475558016-41.589168369596365 1.7763568394002505e-15-15.222786806304592 5.934670290856186-29.05843380968617 15.616048090638438-39.32255333079947 21.709810446520585-22.85205572238115 57.977438618563085-23.881685266818845 80.85630761033059-2.259464833627163l474.77362326849453 449.60490107112867c11.002378204885481 10.446449752940824 17.846912103586778 25.179447505120535 17.846912103586774 41.51230366402202-3.469446951953614e-18 0.04468878231066403-2.0816681711721685e-17 0.09116511591375459-2.7755575615628914e-17 0.1358538982244186z" fill="#ffffff" /></svg>