<?xml version="1.0" standalone="no"?><!DOCTYPE svg PUBLIC "-//W3C//DTD SVG 1.1//EN" "http://www.w3.org/Graphics/SVG/1.1/DTD/svg11.dtd"><svg class="icon" width="64px" height="64.00px" viewBox="0 0 1024 1024" version="1.1" xmlns="http://www.w3.org/2000/svg"><path d="M217.41154700810262 511.77119343456945c-1.734723475976807e-18-0.005362653877279683-3.469446951953614e-18-0.010725307754559366-2.6020852139652106e-18-0.014300410339412485-3.552713678800501e-15-16.332856158901485 6.8445338987012985-31.06585391108121 17.821886385492814-41.48906549722048l474.7986489865883-449.17052610706884c10.224793392679924-9.679590248489829 24.067590601231206-15.628560949685422 39.29752761270551-15.630348500977856 31.600331747516744-5.329070518200751e-15 57.21594176798938 25.615610020472616 57.21594176798937 57.215941767989364 1.7763568394002505e-15 16.36860718475002-6.87313471938012 31.13199330890098-17.891600885897446 41.56056754891753l-430.9839792579209 407.64213448141504 430.95716598853465 407.96210616275926c11.020253717809746 10.466112817157512 17.877300475558027 25.227711390016047 17.87730047555803 41.58916836959635 1.7763568394002505e-15 15.222786806304592-5.934670290856175 29.05843380968618-15.616048090638424 39.32255333079948-21.709810446520578 22.852055722381156-57.97743861856307 23.88168526681886-80.85630761033059 2.2594648336271916l-474.7736232684947-449.6049010711285c-11.002378204885483-10.446449752940818-17.84691210358679-25.179447505120528-17.84691210358679-41.51230366402201-1.734723475976807e-17-0.04468878231066403-2.0816681711721685e-17-0.09116511591375459-2.7755575615628914e-17-0.1358538982244186z" fill="#ffffff" /></svg>